<svg xmlns="http://www.w3.org/2000/svg" viewBox="0 0 840 768.8"><path d="M637.1 406.2c-.3-63 28.1-110.5 85.8-145.5-32.3-46.2-81-71.6-145.4-76.5-60.9-4.8-127.5 35.5-151.9 35.5-25.7 0-84.8-33.8-131.1-33.8C198.8 187.4 97 262.2 97 414.5c0 45 8.2 91.4 24.7 139.4 22 63 101.3 217.4 184 214.9 43.2-1 73.8-30.7 130.1-30.7 54.6 0 82.9 30.7 131.1 30.7C650.3 767.5 722 627.1 743 563.9c-111.9-52.7-105.9-154.4-105.9-157.7zM540 124.4C586.9 68.8 582.6 18.2 581.2 0 539.8 2.4 492 28.1 464.7 59.9c-30 34-47.7 76-43.9 123.4 44.7 3.4 85.5-19.6 119.2-58.9z"/></svg>