<svg xmlns="http://www.w3.org/2000/svg" viewBox="0 0 840 588.1"><path d="M459.3 268.1h-86.8v-78h86.8v78zm0-268.1h-86.8v79.7h86.8V0zm102.6 190h-86.8v78h86.8v-78zM356.8 95.4H270v78.9h86.8V95.4zm102.5 0h-86.8v78.9h86.8V95.4zm363.2 131.3c-18.9-12.7-62.5-17.3-95.9-11-4.3-31.5-21.9-58.9-53.9-83.6l-18.4-12.2-12.2 18.4c-24.1 36.5-30.7 96.6-4.9 136.2-11.4 6.2-33.9 14.6-63.5 14H3.2C-8.2 355.1 10.8 441.8 61 501.2c48.6 57.6 121.6 86.9 217 86.9 206.6 0 359.5-95.1 431-268 28.1.5 88.7.1 119.8-59.3 2-3.3 8.7-17.3 11.2-22.4l-17.5-11.7zM151.8 190H65.2v78H152v-78h-.2zm102.5 0h-86.8v78h86.8v-78zm102.5 0H270v78h86.8v-78zM254.3 95.4h-86.8v78.9h86.8V95.4z"/></svg>