<svg xmlns="http://www.w3.org/2000/svg" viewBox="0 0 840 768.9"><path d="M415 185.1c1.5.8 2.7 2.6 4.5 2.6 1.7 0 4.2-.6 4.4-2.3.3-2.1-2.9-3.5-4.8-4.4-2.6-1.1-5.9-1.5-8.3-.2-.6.3-1.2 1.1-.9 1.7.5 2 3.5 1.7 5.1 2.6zm-32.8 2.6c1.8 0 3-1.8 4.5-2.6 1.7-.9 4.7-.6 5.3-2.4.3-.6-.3-1.4-.9-1.7-2.4-1.4-5.7-.9-8.3.2-2 .9-5.1 2.3-4.8 4.4.1 1.5 2.7 2.2 4.2 2.1zm331.9 418.5c-5.4-6-8-17.4-10.8-29.6-2.7-12.2-5.9-25.2-15.8-33.6-2-1.7-3.9-3.2-6-4.4-2-1.2-4.1-2.3-6.2-3 13.8-41 8.4-81.8-5.6-118.7-17.1-45.2-47-84.7-69.8-111.7-25.7-32.3-50.6-62.9-50.1-108.1C550.6 128.2 557.5.1 436 0 282.3-.3 320.7 155.2 319.1 203c-2.6 35.1-9.6 62.8-33.8 97.1-28.3 33.8-68.3 88.3-87.2 145.2-9 26.9-13.2 54.2-9.3 80-9.8 8.7-17.1 22.1-24.9 30.3-6.3 6.5-15.5 8.9-25.5 12.5-10.1 3.6-21 9-27.8 21.8-3.2 5.9-4.2 12.2-4.2 18.6 0 5.9.9 11.9 1.8 17.7 1.8 12.2 3.8 23.6 1.2 31.2-7.8 21.6-8.9 36.6-3.3 47.6 5.7 11 17.1 15.8 30.2 18.5 26 5.4 61.3 4.1 89 18.8 29.7 15.6 59.9 21.2 83.9 15.6 17.4-3.9 31.7-14.4 38.9-30.3 18.8-.2 39.5-8.1 72.5-9.9 22.4-1.8 50.4 8 82.7 6.2.9 3.5 2.1 6.9 3.8 10.1v.2c12.5 25.1 35.7 36.5 60.5 34.5 24.9-2 51.2-16.5 72.5-41.9 20.4-24.6 54-34.8 76.4-48.3 11.1-6.8 20.1-15.2 20.9-27.5.6-12.5-6.6-26.2-23.3-44.8zM419.4 131.1c14.7-33.3 51.3-32.7 66.1-.6 9.8 21.3 5.4 46.4-6.5 60.7-2.4-1.2-8.9-3.9-18.9-7.4 1.7-1.8 4.7-4.1 5.9-6.9 7.2-17.7-.3-40.5-13.7-41-11-.8-20.9 16.2-17.7 34.5-6.2-3-14.1-5.3-19.5-6.6-1.6-10.4-.5-21.9 4.3-32.7zm-61.1-17.3c15.2 0 31.2 21.3 28.7 50.3-5.3 1.5-10.7 3.8-15.3 6.9 1.8-13.4-5-30.2-14.4-29.4-12.6 1.1-14.7 31.8-2.7 42.2 1.5 1.2 2.9-.3-8.9 8.3-23.4-22-15.8-78.3 12.6-78.3zm-20.4 91.1c9.3-6.9 20.4-15 21.2-15.8 7.1-6.6 20.3-21.3 41.9-21.3 10.7 0 23.4 3.5 38.9 13.4 9.5 6.2 17 6.6 33.9 14 12.6 5.3 20.6 14.6 15.8 27.3-3.9 10.7-16.5 21.6-34.1 27.2-16.7 5.4-29.7 24-57.3 22.4-5.9-.3-10.5-1.5-14.4-3.2-12-5.3-18.3-15.6-30-22.5-12.9-7.2-19.8-15.6-22.1-23-2.2-7.4-.1-13.5 6.2-18.5zm4.9 501.4c-4.1 52.7-65.9 51.6-113 27-44.9-23.7-103-9.8-114.8-32.9-3.6-7.1-3.6-19.1 3.9-39.6v-.3c3.6-11.4.9-24-.9-35.9-1.8-11.7-2.7-22.5 1.4-30 5.3-10.1 12.8-13.7 22.2-17 15.5-5.6 17.7-5.1 29.4-14.9 8.3-8.6 14.3-19.4 21.5-27 7.7-8.3 15-12.2 26.6-10.4 12.2 1.8 22.7 10.2 32.9 24l29.4 53.4c14.1 30.1 64.6 72.9 61.4 103.6zm-2.1-38.8c-6.2-9.9-14.4-20.4-21.6-29.4 10.7 0 21.3-3.3 25.1-13.4 3.5-9.3 0-22.4-11.1-37.4-20.3-27.3-57.5-48.8-57.5-48.8-20.3-12.6-31.7-28.1-36.9-44.9s-4.5-35-.5-52.8c7.8-34.4 27.9-67.9 40.8-88.9 3.5-2.6 1.2 4.8-13.1 31.2-12.8 24.2-36.6 80-3.9 123.7.9-31.1 8.3-62.8 20.7-92.3 18-41.1 56-112.4 59-169.2 1.7 1.2 6.9 4.8 9.3 6.2 6.9 4.1 12.2 10.1 18.9 15.5 18.6 15 42.8 13.8 63.7 1.8 9.3-5.3 16.8-11.3 23.9-13.5 14.9-4.7 26.7-12.9 33.5-22.5 11.6 45.6 38.6 111.5 55.8 143.7 9.2 17.1 27.5 53.3 35.4 97 5-.2 10.5.6 16.4 2.1 20.7-53.6-17.6-111.4-35-127.5-7.1-6.9-7.4-9.9-3.9-9.8 18.9 16.8 43.8 50.6 52.8 88.6 4.2 17.4 5 35.6.6 53.6 24.6 10.2 53.9 26.9 46.1 52.2-3.3-.2-4.8 0-6.3 0 4.8-15.2-5.9-26.4-34.2-39.2-29.4-12.9-54-12.9-57.5 18.8-18.2 6.3-27.5 22.1-32.1 41-4.2 16.8-5.4 37.1-6.6 59.9-.8 11.6-5.4 27-10.2 43.5-48.2 34.3-115.1 49.3-171.6 10.8zm386.5-17.3c-1.4 25.2-61.9 29.9-94.9 69.8-19.8 23.6-44.1 36.6-65.5 38.3-21.3 1.7-39.8-7.2-50.6-29-7.1-16.7-3.6-34.7 1.7-54.5 5.6-21.3 13.8-43.2 14.9-61 1.2-22.8 2.6-42.8 6.3-58.1 3.9-15.5 9.9-25.8 20.6-31.7.5-.3 1.1-.5 1.5-.8 1.2 19.8 11 39.9 28.2 44.3 18.9 5 46.1-11.3 57.6-24.5 13.5-.5 23.6-1.4 33.9 7.7 14.9 12.8 10.7 45.5 25.7 62.5 15.9 17.5 21 29.3 20.6 37zm-383.5-427c3 2.9 7.1 6.8 12 10.7 9.9 7.8 23.7 15.9 41 15.9 17.4 0 33.8-8.9 47.7-16.2 7.4-3.9 16.4-10.5 22.2-15.6 5.9-5.1 8.9-9.5 4.7-9.9s-3.9 3.9-9 7.7c-6.6 4.8-14.6 11.1-20.9 14.7-11.1 6.3-29.3 15.3-44.9 15.3s-28.1-7.2-37.4-14.6c-4.7-3.8-8.6-7.5-11.6-10.4-2.3-2.1-2.9-6.9-6.5-7.4-1.9-.1-2.5 5.6 2.7 9.8z"/></svg>