<svg width="0" height="0" class="hidden">
  <symbol xmlns="http://www.w3.org/2000/svg" fill="none" stroke-width="2" stroke="currentColor" viewBox="0 0 24 24" id="arrow-path">
    <path stroke-linecap="round" stroke-linejoin="round" d="M16.023 9.348h4.992v-.001M2.985 19.644v-4.992m0 0h4.992m-4.993 0l3.181 3.183a8.25 8.25 0 0013.803-3.7M4.031 9.865a8.25 8.25 0 0113.803-3.7l3.181 3.182m0-4.991v4.99"></path>
  </symbol>
  <symbol xmlns="http://www.w3.org/2000/svg" fill="none" stroke-width="2" stroke="currentColor" viewBox="0 0 24 24" id="at-symbol">
    <path stroke-linecap="round" d="M16.5 12a4.5 4.5 0 11-9 0 4.5 4.5 0 019 0zm0 0c0 1.657 1.007 3 2.25 3S21 13.657 21 12a9 9 0 10-2.636 6.364M16.5 12V8.25"></path>
  </symbol>
  <symbol xmlns="http://www.w3.org/2000/svg" fill="none" stroke-width="2" stroke="currentColor" viewBox="0 0 24 24" id="fire">
    <path stroke-linecap="round" stroke-linejoin="round" d="M15.362 5.214A8.252 8.252 0 0112 21 8.25 8.25 0 016.038 7.048 8.287 8.287 0 009 9.6a8.983 8.983 0 013.361-6.867 8.21 8.21 0 003 2.48z"></path>
    <path stroke-linecap="round" stroke-linejoin="round" d="M12 18a3.75 3.75 0 00.495-7.467 5.99 5.99 0 00-1.925 3.546 5.974 5.974 0 01-2.133-1A3.75 3.75 0 0012 18z"></path>
  </symbol>
  <symbol xmlns="http://www.w3.org/2000/svg" fill="none" stroke-width="2" stroke="currentColor" viewBox="0 0 24 24" id="link">
    <path stroke-linecap="round" stroke-linejoin="round" d="M13.19 8.688a4.5 4.5 0 011.242 7.244l-4.5 4.5a4.5 4.5 0 01-6.364-6.364l1.757-1.757m13.35-.622l1.757-1.757a4.5 4.5 0 00-6.364-6.364l-4.5 4.5a4.5 4.5 0 001.242 7.244"></path>
  </symbol>
  <symbol xmlns="http://www.w3.org/2000/svg" fill="none" stroke-width="2" stroke="currentColor" viewBox="0 0 24 24" id="key">
    <path stroke-linecap="round" stroke-linejoin="round" d="M15.75 5.25a3 3 0 013 3m3 0a6 6 0 01-7.029 5.912c-.563-.097-1.159.026-1.563.43L10.5 17.25H8.25v2.25H6v2.25H2.25v-2.818c0-.597.237-1.17.659-1.591l6.499-6.499c.404-.404.527-1 .43-1.563A6 6 0 1121.75 8.25z"></path>
  </symbol>
  <symbol xmlns="http://www.w3.org/2000/svg" fill="none" stroke-width="2" stroke="currentColor" viewBox="0 0 24 24" id="arrow-right">
    <path stroke-linecap="round" stroke-linejoin="round" d="M13.5 4.5L21 12m0 0l-7.5 7.5M21 12H3"></path>
  </symbol>
  <symbol xmlns="http://www.w3.org/2000/svg" fill="none" stroke-width="2" stroke="currentColor" viewBox="0 0 24 24" id="cart">
    <path stroke-linecap="round" stroke-linejoin="round" d="M2.25 3h1.386c.51 0 .955.343 1.087.835l.383 1.437M7.5 14.25a3 3 0 00-3 3h15.75m-12.75-3h11.218c1.121-2.3 2.1-4.684 2.924-7.138a60.114 60.114 0 00-16.536-1.84M7.5 14.25L5.106 5.272M6 20.25a.75.75 0 11-1.5 0 .75.75 0 011.5 0zm12.75 0a.75.75 0 11-1.5 0 .75.75 0 011.5 0z"></path>
  </symbol>
  <symbol xmlns="http://www.w3.org/2000/svg" fill="none" stroke-width="2" stroke="currentColor" viewBox="0 0 24 24" id="list-bullet">
    <path stroke-linecap="round" stroke-linejoin="round" d="M8.25 6.75h12M8.25 12h12m-12 5.25h12M3.75 6.75h.007v.008H3.75V6.75zm.375 0a.375.375 0 11-.75 0 .375.375 0 01.75 0zM3.75 12h.007v.008H3.75V12zm.375 0a.375.375 0 11-.75 0 .375.375 0 01.75 0zm-.375 5.25h.007v.008H3.75v-.008zm.375 0a.375.375 0 11-.75 0 .375.375 0 01.75 0z"></path>
  </symbol>
  <symbol xmlns="http://www.w3.org/2000/svg" fill="none" stroke-width="2" stroke="currentColor" viewBox="0 0 24 24" id="pencil-square">
    <path stroke-linecap="round" stroke-linejoin="round" d="M16.862 4.487l1.687-1.688a1.875 1.875 0 112.652 2.652L10.582 16.07a4.5 4.5 0 01-1.897 1.13L6 18l.8-2.685a4.5 4.5 0 011.13-1.897l8.932-8.931zm0 0L19.5 7.125M18 14v4.75A2.25 2.25 0 0115.75 21H5.25A2.25 2.25 0 013 18.75V8.25A2.25 2.25 0 015.25 6H10"></path>
  </symbol>
  <symbol xmlns="http://www.w3.org/2000/svg" fill="none" stroke-width="2" stroke="currentColor" viewBox="0 0 24 24" id="plus">
    <path stroke-linecap="round" stroke-linejoin="round" d="M12 4.5v15m7.5-7.5h-15"></path>
  </symbol>
  <symbol xmlns="http://www.w3.org/2000/svg" fill="none" stroke-width="2" stroke="currentColor" viewBox="0 0 24 24" id="x-mark">
    <path stroke-linecap="round" stroke-linejoin="round" d="M6 18L18 6M6 6l12 12"></path>
  </symbol>
  <symbol xmlns="http://www.w3.org/2000/svg" fill="none" stroke-width="2" stroke="currentColor" viewBox="0 0 24 24" id="bag">
    <path stroke-linecap="round" stroke-linejoin="round" d="M15.75 10.5V6a3.75 3.75 0 10-7.5 0v4.5m11.356-1.993l1.263 12c.07.665-.45 1.243-1.119 1.243H4.25a1.125 1.125 0 01-1.12-1.243l1.264-12A1.125 1.125 0 015.513 7.5h12.974c.576 0 1.059.435 1.119 1.007zM8.625 10.5a.375.375 0 11-.75 0 .375.375 0 01.75 0zm7.5 0a.375.375 0 11-.75 0 .375.375 0 01.75 0z"></path>
  </symbol>
  <symbol xmlns="http://www.w3.org/2000/svg" fill="none" stroke-width="2" stroke="currentColor" viewBox="0 0 24 24" id="booth">
    <path stroke-linecap="round" stroke-linejoin="round" d="M9.594 3.94c.09-.542.56-.94 1.11-.94h2.593c.55 0 1.02.398 1.11.94l.213 1.281c.063.374.313.686.645.87.074.04.147.083.22.127.324.196.72.257 1.075.124l1.217-.456a1.125 1.125 0 011.37.49l1.296 2.247a1.125 1.125 0 01-.26 1.431l-1.003.827c-.293.24-.438.613-.431.992a6.759 6.759 0 010 .255c-.007.378.138.75.43.99l1.005.828c.424.35.534.954.26 1.43l-1.298 2.247a1.125 1.125 0 01-1.369.491l-1.217-.456c-.355-.133-.75-.072-1.076.124a6.57 6.57 0 01-.22.128c-.331.183-.581.495-.644.869l-.213 1.28c-.09.543-.56.941-1.11.941h-2.594c-.55 0-1.02-.398-1.11-.94l-.213-1.281c-.062-.374-.312-.686-.644-.87a6.52 6.52 0 01-.22-.127c-.325-.196-.72-.257-1.076-.124l-1.217.456a1.125 1.125 0 01-1.369-.49l-1.297-2.247a1.125 1.125 0 01.26-1.431l1.004-.827c.292-.24.437-.613.43-.992a6.932 6.932 0 010-.255c.007-.378-.138-.75-.43-.99l-1.004-.828a1.125 1.125 0 01-.26-1.43l1.297-2.247a1.125 1.125 0 011.37-.491l1.216.456c.356.133.751.072 1.076-.124.072-.044.146-.087.22-.128.332-.183.582-.495.644-.869l.214-1.281z"></path>
    <path stroke-linecap="round" stroke-linejoin="round" d="M15 12a3 3 0 11-6 0 3 3 0 016 0z"></path>
  </symbol>
  <symbol xmlns="http://www.w3.org/2000/svg" fill="none" stroke-width="2" stroke="currentColor" viewBox="0 0 24 24" id="eye-slash">
    <path stroke-linecap="round" stroke-linejoin="round" d="M3.98 8.223A10.477 10.477 0 001.934 12C3.226 16.338 7.244 19.5 12 19.5c.993 0 1.953-.138 2.863-.395M6.228 6.228A10.45 10.45 0 0112 4.5c4.756 0 8.773 3.162 10.065 7.498a10.523 10.523 0 01-4.293 5.774M6.228 6.228L3 3m3.228 3.228l3.65 3.65m7.894 7.894L21 21m-3.228-3.228l-3.65-3.65m0 0a3 3 0 10-4.243-4.243m4.242 4.242L9.88 9.88"></path>
  </symbol>
  <symbol xmlns="http://www.w3.org/2000/svg" fill="none" stroke-width="2" stroke="currentColor" viewBox="0 0 24 24" id="trash">
    <path stroke-linecap="round" stroke-linejoin="round" d="M14.74 9l-.346 9m-4.788 0L9.26 9m9.968-3.21c.342.052.682.107 1.022.166m-1.022-.165L18.16 19.673a2.25 2.25 0 01-2.244 2.077H8.084a2.25 2.25 0 01-2.244-2.077L4.772 5.79m14.456 0a48.108 48.108 0 00-3.478-.397m-12 .562c.34-.059.68-.114 1.022-.165m0 0a48.11 48.11 0 013.478-.397m7.5 0v-.916c0-1.18-.91-2.164-2.09-2.201a51.964 51.964 0 00-3.32 0c-1.18.037-2.09 1.022-2.09 2.201v.916m7.5 0a48.667 48.667 0 00-7.5 0"></path>
  </symbol>
  <symbol xmlns="http://www.w3.org/2000/svg" fill="none" stroke-width="2" stroke="currentColor" viewBox="0 0 24 24" id="open">
    <path stroke-linecap="round" stroke-linejoin="round" d="M13.5 6H5.25A2.25 2.25 0 003 8.25v10.5A2.25 2.25 0 005.25 21h10.5A2.25 2.25 0 0018 18.75V10.5m-10.5 6L21 3m0 0h-5.25M21 3v5.25"></path>
  </symbol>
  <symbol xmlns="http://www.w3.org/2000/svg" fill="none" stroke-width="2" stroke="currentColor" viewBox="0 0 24 24" id="exit">
    <path stroke-linecap="round" stroke-linejoin="round" d="M15.75 9V5.25A2.25 2.25 0 0013.5 3h-6a2.25 2.25 0 00-2.25 2.25v13.5A2.25 2.25 0 007.5 21h6a2.25 2.25 0 002.25-2.25V15m3 0l3-3m0 0l-3-3m3 3H9"></path>
  </symbol>
  <symbol xmlns="http://www.w3.org/2000/svg" fill="none" stroke-width="2" stroke="currentColor" viewBox="0 0 24 24" id="eye">
    <path stroke-linecap="round" stroke-linejoin="round" d="M2.036 12.322a1.012 1.012 0 010-.639C3.423 7.51 7.36 4.5 12 4.5c4.638 0 8.573 3.007 9.963 7.178.07.207.07.431 0 .639C20.577 16.49 16.64 19.5 12 19.5c-4.638 0-8.573-3.007-9.963-7.178z"></path>
    <path stroke-linecap="round" stroke-linejoin="round" d="M15 12a3 3 0 11-6 0 3 3 0 016 0z"></path>
  </symbol>
  <symbol xmlns="http://www.w3.org/2000/svg" fill="none" stroke-width="2" stroke="currentColor" viewBox="0 0 24 24" id="money">
    <path stroke-linecap="round" stroke-linejoin="round" d="M2.25 18.75a60.07 60.07 0 0115.797 2.101c.727.198 1.453-.342 1.453-1.096V18.75M3.75 4.5v.75A.75.75 0 013 6h-.75m0 0v-.375c0-.621.504-1.125 1.125-1.125H20.25M2.25 6v9m18-10.5v.75c0 .414.336.75.75.75h.75m-1.5-1.5h.375c.621 0 1.125.504 1.125 1.125v9.75c0 .621-.504 1.125-1.125 1.125h-.375m1.5-1.5H21a.75.75 0 00-.75.75v.75m0 0H3.75m0 0h-.375a1.125 1.125 0 01-1.125-1.125V15m1.5 1.5v-.75A.75.75 0 003 15h-.75M15 10.5a3 3 0 11-6 0 3 3 0 016 0zm3 0h.008v.008H18V10.5zm-12 0h.008v.008H6V10.5z"></path>
  </symbol>
  <symbol xmlns="http://www.w3.org/2000/svg" fill="none" stroke-width="2" stroke="currentColor" viewBox="0 0 24 24" id="lock-closed">
    <path stroke-linecap="round" stroke-linejoin="round" d="M16.5 10.5V6.75a4.5 4.5 0 10-9 0v3.75m-.75 11.25h10.5a2.25 2.25 0 002.25-2.25v-6.75a2.25 2.25 0 00-2.25-2.25H6.75a2.25 2.25 0 00-2.25 2.25v6.75a2.25 2.25 0 002.25 2.25z"></path>
  </symbol>
  <symbol xmlns="http://www.w3.org/2000/svg" fill="none" stroke-width="2" stroke="currentColor" viewBox="0 0 24 24" id="finger-print">
    <path stroke-linecap="round" stroke-linejoin="round" d="M7.864 4.243A7.5 7.5 0 0119.5 10.5c0 2.92-.556 5.709-1.568 8.268M5.742 6.364A7.465 7.465 0 004.5 10.5a7.464 7.464 0 01-1.15 3.993m1.989 3.559A11.209 11.209 0 008.25 10.5a3.75 3.75 0 117.5 0c0 .527-.021 1.049-.064 1.565M12 10.5a14.94 14.94 0 01-3.6 9.75m6.633-4.596a18.666 18.666 0 01-2.485 5.33"></path>
  </symbol>
  <symbol xmlns="http://www.w3.org/2000/svg" fill="none" stroke-width="2" stroke="currentColor" viewBox="0 0 24 24" id="rocket">
    <path stroke-linecap="round" stroke-linejoin="round" d="M15.59 14.37a6 6 0 01-5.84 7.38v-4.8m5.84-2.58a14.98 14.98 0 006.16-12.12A14.98 14.98 0 009.631 8.41m5.96 5.96a14.926 14.926 0 01-5.841 2.58m-.119-8.54a6 6 0 00-7.381 5.84h4.8m2.581-5.84a14.927 14.927 0 00-2.58 5.84m2.699 2.7c-.103.021-.207.041-.311.06a15.09 15.09 0 01-2.448-2.448 14.9 14.9 0 01.06-.312m-2.24 2.39a4.493 4.493 0 00-1.757 4.306 4.493 4.493 0 004.306-1.758M16.5 9a1.5 1.5 0 11-3 0 1.5 1.5 0 013 0z"></path>
  </symbol>
  <symbol xmlns="http://www.w3.org/2000/svg" fill="none" stroke-width="2" stroke="currentColor" viewBox="0 0 24 24" id="lock-open">
    <path stroke-linecap="round" stroke-linejoin="round" d="M13.5 10.5V6.75a4.5 4.5 0 119 0v3.75M3.75 21.75h10.5a2.25 2.25 0 002.25-2.25v-6.75a2.25 2.25 0 00-2.25-2.25H3.75a2.25 2.25 0 00-2.25 2.25v6.75a2.25 2.25 0 002.25 2.25z"></path>
  </symbol>
  <symbol xmlns="http://www.w3.org/2000/svg" fill="none" stroke-width="2" stroke="currentColor" viewBox="0 0 24 24" id="minus">
    <path stroke-linecap="round" stroke-linejoin="round" d="M19.5 12h-15"></path>
  </symbol>
  <symbol xmlns="http://www.w3.org/2000/svg" fill="none" stroke-width="2" stroke="currentColor" viewBox="0 0 24 24" id="photo">
    <path stroke-linecap="round" stroke-linejoin="round" d="M2.25 15.75l5.159-5.159a2.25 2.25 0 013.182 0l5.159 5.159m-1.5-1.5l1.409-1.409a2.25 2.25 0 013.182 0l2.909 2.909m-18 3.75h16.5a1.5 1.5 0 001.5-1.5V6a1.5 1.5 0 00-1.5-1.5H3.75A1.5 1.5 0 002.25 6v12a1.5 1.5 0 001.5 1.5zm10.5-11.25h.008v.008h-.008V8.25zm.375 0a.375.375 0 11-.75 0 .375.375 0 01.75 0z"></path>
  </symbol>
  <symbol xmlns="http://www.w3.org/2000/svg" fill="none" stroke-width="2" stroke="currentColor" viewBox="0 0 24 24" id="exclamation">
    <path stroke-linecap="round" stroke-linejoin="round" d="M12 9v3.75m-9.303 3.376c-.866 1.5.217 3.374 1.948 3.374h14.71c1.73 0 2.813-1.874 1.948-3.374L13.949 3.378c-.866-1.5-3.032-1.5-3.898 0L2.697 16.126zM12 15.75h.007v.008H12v-.008z"></path>
  </symbol>
  <symbol xmlns="http://www.w3.org/2000/svg" fill="none" stroke-width="2" stroke="currentColor" viewBox="0 0 24 24" id="glob-alt">
    <path stroke-linecap="round" stroke-linejoin="round" d="M12 21a9.004 9.004 0 008.716-6.747M12 21a9.004 9.004 0 01-8.716-6.747M12 21c2.485 0 4.5-4.03 4.5-9S14.485 3 12 3m0 18c-2.485 0-4.5-4.03-4.5-9S9.515 3 12 3m0 0a8.997 8.997 0 017.843 4.582M12 3a8.997 8.997 0 00-7.843 4.582m15.686 0A11.953 11.953 0 0112 10.5c-2.998 0-5.74-1.1-7.843-2.918m15.686 0A8.959 8.959 0 0121 12c0 .778-.099 1.533-.284 2.253m0 0A17.919 17.919 0 0112 16.5c-3.162 0-6.133-.815-8.716-2.247m0 0A9.015 9.015 0 013 12c0-1.605.42-3.113 1.157-4.418"></path>
  </symbol>
</svg>